<svg xmlns="http://www.w3.org/2000/svg" version="1.1" id="Face" viewBox="0 0 960 960" width="960" height="960"><defs>
    <style>
      .st0 {
        fill: #fccaa1;
      }

      .st1 {
        fill: #21120b;
      }

      .st2 {
        fill: #d49a70;
      }

      .st3 {
        fill: #fff;
      }

      .st4 {
        fill: #fae1bd;
      }

      .st5 {
        fill: #af7f5c;
      }
    </style>
  </defs><path class="st1" d="M489.44,902.59l-15.34.1c-31.68-1.64-68.03-8.83-96.83-22.41-23.23-10.95-54.48-31.48-65.45-54.9-1.61-3.44-2.26-7.46-2.67-11.27l-3.64-33.75c-.27-2.53-1.16-4.48-3.18-6.11-10.57-8.49-20.2-17.63-28.96-28.05-14.34-17.06-23.77-44.2-29.08-65.93l-2.57-8.1c-.87-2.75-2.47-5.8-5.08-7.44-17.55-5.26-32.23-16.97-41.43-32.88-3.36-5.82-5.44-11.94-6.9-18.54-1.99-9-3.28-17.81-3.72-27.06l-1.77-37.1-.27-7.72v-11.47s.3-4.34.3-4.34c.3-4.27.41-8.08,1.25-12.26,1.93-9.61,8.77-17.61,18.53-19.83l5.14-.72c.61-2.44.65-4.98-.07-7.37-7.52-1.82-14.75-7.87-9.44-9.19l8.9-2.22c.68-.17,1.75-1.15,2.02-1.75,1.36-2.91-5.45-7.2-7.51-12.48-3.33-8.52-2.97-18.14-.55-26.82.57-2.06.23-3.55-1.38-4.97-4.06-3.61-7.41-9.96-3.97-10.04l5.07-.12-3.13-4.6-1.75-2.78.88-.94,6.21.2-6.39-5.98c-2.24-2.09-4.23-4.54-5.44-7.47-3.51-8.44-4.04-17.7-1.43-26.49,2.75-9.27,7.31-10.62,7.48-13.64l.56-9.62c.61-10.59.47-20.82,1.67-31.38,4.31-37.96,12.05-74.03,27.83-109.01,9.04-20.02,21.14-38.13,35.7-54.44l10.07-10.2c41.77-37.35,101.53-59.1,156.55-66.91,5.13-.62,9.43-2.06,13.78-4.67,8.51-10.77,22.08-12.93,35.59-13.08,12.16-.14,28.75,2.19,35.02,12.79.75,1.27,2.32,2.28,3.93,2.4,15.15,1.09,29.61,3.63,44.49,6.83,27.53,5.91,53.58,15.39,78.47,28.52,11.54,6.09,22.24,12.84,32.78,20.5l26.37,20.69,24.5,21.06,13.38,13.52c21.14,23.3,36.03,51.52,38.97,83.21.94,10.08.82,19.71.17,29.79-.93,14.57-4.6,28.44-9.92,41.86-3.93,9.9-11.84,20.52-11.91,23.12l-.29,10.86c-.14,5.18-2.43,9.65-5.42,13.78l-3.16,4.35c-.58.8-.81,2.55-.75,2.59,2.81,1.8,8.54-1.52,11.84-5.17l1.19-.99c.23-.19.59.95.62,1.27-.77,6.87-3.74,12.96-8.41,17.93l-3.87,2.49c-3.51,2.26,3,5.27-.1,14.27-3.34,9.7-4.15,23.92,5.12,24.68,3.01.25-2.63,6.48-6.01,8.31-3.1,1.68-5,3.76-5.21,7.54l-.46,8.15c-.38,6.66-2.63,12.53-6.57,17.84-.8,1.08-1.31,2.58-1.44,3.92,4.35.09,7.55,1.25,10.71,3.87,8.81,7.32,9.64,17.05,9.59,28.32l.4,3.39.09,23.94-.42,4.37-1.47,50.89c-.24,8.17-2.67,15.73-5.53,23.29-3.47,9.16-8.66,17.34-15.81,23.97-4.5,4.18-9.54,6.92-14.73,10.37-1.42,2.65-2.12,6.03-2.8,9.13l-5.32,24.42c-2,9.19-5.21,17.71-9.39,26.15-7.85,15.86-18.45,29.51-31.54,41.39-10.97,9.96-22.28,18.96-34.33,27.52-2.05,1.45-3.14,3.49-3.3,5.95l-.86,12.73c-1.47,21.73-7.61,36.69-24.39,50.73-14.38,12.03-31.06,20.98-48.89,27.01-20.9,7.07-42.55,10.86-64.92,12.19ZM473.3,75.47l25.89-.84c-4.26-3.54-9.68-5.15-14.53-5.14l-9.41.04c-4.62.02-9.25,1.79-13.43,3.46-1.47.59-2.52,1.4-3.17,3.04l14.65-.56ZM240.53,504.19l1.51,30.21,3.76,32.94,10.26,61.95M263.43,668.22c4.5,13.11,7.96,48.39,15.35,60.18,5.29,8.44,11.01,16.18,18.45,22.69,8.26,7.24,16.63,13.64,25.7,19.97,20.8,14.51,41.94,28.03,64.09,40.44,27.37,15.34,58.73,29.32,90.07,32.21l18.7-.11,5.37.28c21.39-2,46.19-8.14,64.08-19.88l15.14-9.94,51.05-38.22c17.18-12.86,40.2-33.79,50.24-52.8,6.18-11.69,10.27-23.57,13.15-36.45,3.5-15.7,5.82-31.15,7.22-47.23l4.81-55,3.2-58.67.82-4.86.26-12.92c.07-3.46-.34-6.41-.33-9.85l.06-16.36.26-8.5-.34-14.8-.56-7.14-2.18-51.85c-.22-5.13-.41-9.78-3.26-14.18-2.14-3.31-3.95-7.06-4.69-11.03l-2.72-14.57-2.79-13.56c-.92-4.47-12.03-4.82-18.78-11.49l-5.32-5.25c-1.76-1.73-3.09-4.41-5.58-5.48-1.7-.73-5.69-.83-7.39-.05l-8.87,4.13c-4.74,2.2-9.35,2.85-14.55,2.73-4.66-.11-9,0-13.29-2.06-.76-.37-1.36-1.7-.82-2.25l5.02-5.11c.22-.22.82-1.29.54-1.39s-1.34-.37-1.69-.29l-8.95,1.99c-5.55.6-11.06.78-16.55-.3-10.87-2.14-20.41-8.81-26.8-17.64-1.41-1.95-2.65-2.37-4.98-1.56-17.3,6.04-37.8.81-48.72-14.57-1.89.02-3.47.41-5.33.82-7.41,1.63-14.92.41-21.98-2.2-10.2-3.77-13.71-11.64-16.84-10.96-.72.16-1.79,1.03-2.49,1.7-9.3,8.98-14.73,10.64-26.84,13.38-4.62,1.05-9.01.93-13.8.84-1.1-.02-2.67,1.2-3.52,2.1-12.12,12.79-27.39,10.8-40.29-.21-1.41-1.2-2.72-1.34-4.25-.18-5.79,4.39-11.93,7.91-18.4,11.28l-11.39,5.93c-4.98,3.08-10.01,5.54-15.56,7.5-2.19.77-4.12,2.17-5.6,3.99-4.76,5.87-11.58,12.4-19.17,12.43l-9.05.04c-1.39,0-3.4-.1-4.41.94-6.33,6.6-13.07,12.29-20.82,17.1l-9.44,4.51c-2.09,1-3.69,2.62-4.32,4.82-2.36,8.24-6.65,14.96-12.42,21.19-1.15,1.24-2.08,3.72-2.71,5.38-3.26,8.67-4.67,17.43-5.6,26.63l-3.03,29.89-.75,20.54M196.68,517.88l-.4,9.95.03,12.22,2.89,56.31c.68,13.14,4.24,25.35,12.64,35.71,2.42,2.98,4.71,5.99,7.77,8.51,5.48,4.52,11.35,8.89,18.58,10.03l10.14.48-3.75-20.68-9.08-59c-2.78-18.09-5.67-35.6-10.68-53.16-.51-1.78-1.52-3.25-3.06-4.16-5.29-3.14-14.19-7.24-19.08-5.56-3.94,1.35-5.87,5.7-6.01,9.37ZM611.57,817.06c.75-3.25.63-6.35-.1-9.92l-4.29,2.67c-13.94,11.04-28.13,21.34-43.67,30.09-16.05,9.03-42.17,16.04-60.44,17.18h-22.61c-12.69-.74-24.85-3.67-37.07-6.89-11.52-3.04-22.13-7.24-32.91-12.19l-31.78-16.73-57.02-35.3,1.58,18.98c.5,5.97.48,11.51,3.6,16.89,2.41,4.16,5.23,7.9,8.67,11.51,20.81,21.79,49.5,35.98,78.43,44.37,15.39,4.46,30.78,8.25,46.81,9.14l8.25.46c7.6.42,15.35,1.23,22.84-.08,2.17-.38,3.87-.25,6.1-.41,24.41-1.7,48.17-8.13,70.34-18.45,12.99-6.05,24.01-14.08,33.39-24.82,11.34-12.98,8.26-19.42,9.89-26.51Z"></path><path class="st2" d="M532.34,489.82c-.1,1.02-1.08,2.23-1.74,2.39-4.12,1.02-9.34-13.02-7.94-23.31,1.24-9.13,5.34-17.42,11.14-24.3,4.39-4.8,9.4-8.15,15.79-9.49l1.82.62c.42.14.45,1.69.22,2.11l-2.44,4.37c-7.64,10.4-13.55,22.13-15.67,34.99l-1.18,12.62Z"></path><path class="st2" d="M441.19,409.12c.12,2.15.01,4.14-1.79,5.26l-10.03-25.84c-.94-2.43-1.59-4.84-1.68-7.64,8.73,4.38,12.94,18.32,13.5,28.21Z"></path><path class="st2" d="M546.54,414.07c-2.76-6.33,1.78-18.85,5.19-25.48.83-1.61,1.83-3.02,3.8-3.57.36,1.17.56,3,.21,4.09l-6.97,21.86c-.34,1.06-.9,1.69-2.23,3.09Z"></path><path class="st2" d="M569.01,383.52c2.39-.29-5.75,14.93-12.71,17.35,1.89-7,6.04-12.67,11.22-17.17l1.5-.18Z"></path><path class="st2" d="M424.23,395.1l-3.68-4.91c-2.06-2.75-4.17-5.09-7.23-6.75l-.98-2.76c1.04-.35,3.14-.12,4.34.9,3.57,3.05,6.91,6.63,9.51,10.42l-1.96,3.11Z"></path><g>
    <path class="st2" d="M740.39,358.22c-.94,1.4-1.92,2.88-3.53,4.09l-1.89-6.22-4.83-10.08c-.95-1.97-.69-3.5.32-5.3,5.35-9.53,1.8-22.54-3.11-32.16-2.01-3.94-3.06-7.47-3.17-11.99-.14-6-3.99-14.83-4.89-13.91-.25.25-.71,1-.79,1.37l-1.59,6.76c-1.34-.37-2.5-1.08-3.06-1.86l-5.84-8.17c-1.18-1.64-1.69-3.33-1.2-5.47,2.63-11.46,2.16-24.93-4.96-34.63-2.86,1.68-1.19,7.08-3.97,12.82-.83,1.7-3,2.99-4.54,4-2.55,1.67-5.27,1.75-8.01.41l-10.92-5.36c-3.26-1.6-.82-6.52-4.76-13.97l-3.63-6.86c-.26-.49-1.43-1.24-1.89-1.06-.53.21-1.34,1.25-1.57,1.81l-3.27,7.93c-1.36-2.35-1.46-4.01-2.2-6.15-4.07-11.61-11.64-21.45-21.34-28.96-15.11-10.9-36.96-11.79-54.18-4.07-1.04-14.58-10.53-26.08-24.4-29.26-.71-.16-1.01,1.94-.69,2.63,2.66,5.74,5.27,11.23,6.41,17.54l.14,8.6c.03,1.89-.7,4.34-2.04,5.68-.48.48-2.01-.8-2.28-1.4-2.42-5.58-6.07-9.93-10.4-14.06-3.57-3.41-6.65-6.82-12.15-8.47l1.77,11.04c-.14.39-1.63.22-2.07-.18-7.09-6.32-15.29-9.97-24.56-11.99-7.87-1.72-15.55-2.89-23.63-1.74-7.58,1.07-14.59,3.06-21.86,5.43-12.41,5.87-23.08,14.42-30.94,25.67l-1.93.71c-2.15-6.62.56-13.04,6.62-16.13.41-.48.98-1.17,1.19-1.58.26-.5-.83-1.56-1.36-1.85-5.45-2.96-11.29-3.44-17.52-3.7-9.17-.39-18.21,3.49-23.09,11.44l-3.04,4.96c-18.47-2.79-40.05,8.31-43.1,27.08l-.27,11.56-6.33-1.81c-1.36,1.67-3.21,2.33-5.22,1.58-12.9-4.8-31.03,2.17-36.88,13.45l-4.05,7.79-2.63-2.82c-3.03-4.76-3.12-9.74-5.35-10.3-.95,2.85-1.1,5.85-1.1,9.13,0,5.56.09,10.89.97,16.37.34,2.15-.72,3.87-2.64,4.97-6.78,3.9-12.36,8.64-17.89,14.26-10.06,10.23-18.66,21.4-26.42,33.48l-1.5,1.55c2.13-4.11,1.92-5.7,3.19-8.4l5.27-11.17c6.73-14.28,14.77-27.56,23.38-40.87,9.08-14.03,19.37-26.65,30.67-38.89,6.96-7.53,13.79-14.53,21.54-21.3,23.5-20.53,49.28-38.22,77.82-51.15,19.83-8.99,40.2-16.06,61.44-20.62,10.49-2.26,20.46-4.41,31.18-5.4,20.7-1.91,41.09-1.97,61.88-.78,19.37,1.11,38.01,5.18,56.56,10.29,10.78,2.97,20.54,6.78,30.78,11.09,14.07,5.93,26.84,13.36,39.35,22.08,8.11,5.65,15.49,11.37,22.66,18.22,15.86,15.15,27.64,33.64,34.88,54.38,3.93,11.27,6.18,22.51,6.02,34.44l-.3,21.57c-1.07,9.92-3.41,19.26-6.03,28.84-1.71,6.24-2.08,12.34-3.01,18.73l-.72,4.99-.16.95c-.03.17.23.24.69.43Z"></path>
    <path class="st4" d="M656.34,132.67l-2.14.35-.47-.05-.6-.38-24.88-9.22c-23.65-8.77-56.47-13.97-81.8-14.72-7.89-.23-15.5-.51-23.37-.19l-12.39.49c-28.55,1.13-60.71,7.89-87.63,17.47-9.85,3.51-19.17,6.92-28.7,11.23-35.03,15.86-72.27,39.34-99.17,66.78l-8.84,9.01c-1.61,1.65-2.28,2.73-3.84,4.51-1.94,2.22-3.36,3.89-7.04,8.41,3.68-38.04,12.12-59.05,28.46-84.61l4.08-8.02c.57-.41,1.39-1.23,1.64-1.89l7.39-4.91c23.17-12.94,47.6-22.73,73.21-29.91,15.87-4.45,31.52-7.88,47.97-9.56,25.58-2.61,50.61-3.42,76.37-1.86,39.39,2.39,83.58,15.07,118.67,33.22l4.79,2.48,18.28,11.38Z"></path>
    <path class="st4" d="M230.44,337.93c.53-.9.78-2.51,1.03-3.84,3.11-16.65,8.56-32.42,16.18-47.62,10.73-21.39,24.02-41.1,39.48-59.26l6.17-6.39,5.76-6.74,4.8-4.8,8.4-7.45,5.71-5.41c18.61-15.23,38.17-29.24,59.8-39.82l22.63-11.07c8.15-3.99,16.18-6.92,24.86-9.85,23.92-8.07,48.61-14.02,73.88-16.11,21.99-1.81,43.41-1.82,65.42.03,39.1,3.29,77.08,15.31,111.79,33.4,27.7,14.43,56.71,40.31,71.45,67.79,7.25,13.51,12.37,27.88,13.98,43.12,1.16,10.93,1.35,21.24.27,31.93l-.86,8.43c-3.12,17.82-10.93,39.21-20.81,53.93-2.25,3.51-3.55,4.26-3.53,4.09l2.09-3.86c.61-1.12,1.01-2.34,1.19-3.6l.43-3c.93-6.39,1.3-12.49,3.01-18.73,2.63-9.57,4.96-18.92,6.03-28.84l.26-18.43c.18-12.92-1.83-25.8-6.12-37.99-7.25-20.57-18.97-38.91-34.73-53.96-7.17-6.85-14.55-12.57-22.66-18.22-12.5-8.72-25.27-16.15-39.35-22.08-10.23-4.31-20-8.12-30.78-11.09-18.55-5.11-37.18-9.17-56.56-10.29-20.79-1.19-41.18-1.13-61.88.78-10.71.99-20.68,3.14-31.18,5.4-21.24,4.57-41.6,11.64-61.44,20.62-28.54,12.93-54.33,30.62-77.82,51.15-7.75,6.77-14.58,13.76-21.54,21.3-11.31,12.24-21.6,24.85-30.67,38.89-8.61,13.31-16.65,26.59-23.38,40.87l-5.27,11.17c-1.27,2.7-1.06,4.29-3.19,8.4-4.43,8.53-8.43,17.07-12.07,26.18-.68,1.7-1.79,3.93-3.44,4.65"></path>
    <path class="st2" d="M244.47,267.58c0,.21.39.99.57.93l.83-.17c-3.18,5.67-6.23,11.41-9.04,17.27-5.5,11.46-8.33,20.48-11.28,34.51-.39,1.85-.7,3.73-.94,5.6l-1.92,15.38-2.39,20.8.25,7.59,1.78,11.06c.06.37-.47,1.54-.83,1.51-4.91-.45-7.47-18.33-8.18-25.63l.12-5.61-.07-13.84c-.03-6.05.56-11.39.92-17.35l.66-11.03c1.5-12.88,3.66-25.12,6.46-37.8,6.18-28.03,17.19-59.69,32.59-83.48.33,1.54-.15,2.9-1.35,3.71l-.84,6.56c-3.33,12.78-5.88,25.36-7.58,38.56"></path>
    <path class="st4" d="M245.1,269.64c-.18.05-.58-2-.59-2.2l-.31-6.84c-.23-4.54-.45-9.6-.51-13.73s.67-11.42.86-14.24c.88-13.28,3.98-22.38,7.3-35.16l.84-6.56c.68-2.66.65-2.53,1.35-3.71,4.94-7.63,10.16-15.13,16.23-22.23l10.12-10.51,9.88-8.78-1.44,2.81c-12.09,23.49-19.31,53.5-20.9,79.79-.24,4.01-.88,7.45-3.03,10.69l-17.34,26.17-1.18,2.19"></path>
    <path class="st2" d="M275.49,226.35l-9.12,11.19-1.5,1.56c2.15-3.24,2.79-6.68,3.03-10.69,1.59-26.29,8.81-56.3,20.9-79.79l1.47-2.95c6.35-5.76,11.54-8.67,18.76-13.71l.64-.14c-.25.66-1.07,1.48-1.64,1.89l-4.08,8.02c-16.34,25.57-24.81,51.09-27.94,81.17"></path>
    <path class="st4" d="M473.3,75.47l-14.65.56c.65-1.65,1.7-2.45,3.17-3.04,4.18-1.67,8.81-3.44,13.43-3.46l9.41-.04c4.85-.02,10.27,1.59,14.53,5.14l-25.89.84Z"></path>
    <path class="st5" d="M656.34,132.67c1.4.87,2.71,1.51,3.88,3.3-2.52-.82-4.36-1.72-6.02-2.95l2.14-.35Z"></path>
    <path class="st5" d="M653.74,132.97l-.6-.38.6.38Z"></path>
  </g><path class="st2" d="M611.57,817.06c-1.63,7.09,1.45,13.53-9.89,26.51-9.38,10.74-20.4,18.77-33.39,24.82-22.16,10.33-45.92,16.75-70.34,18.45-2.24.16-3.94.03-6.1.41-7.49,1.31-15.24.5-22.84.08l-8.25-.46c-16.03-.9-31.42-4.68-46.81-9.14-28.92-8.39-57.62-22.58-78.43-44.37-3.45-3.61-6.26-7.36-8.67-11.51-3.12-5.38-3.11-10.92-3.6-16.89l-1.58-18.98,57.02,35.3,31.78,16.73c10.78,4.95,21.39,9.15,32.91,12.19,12.22,3.23,24.38,6.15,37.07,6.89h22.61c18.27-1.14,44.39-8.14,60.44-17.18,15.55-8.75,29.73-19.05,43.67-30.09l4.29-2.67c.73,3.57.85,6.67.1,9.92Z"></path><path class="st2" d="M263.24,675.72c-.94-8.17-4.32-32.63-4.32-32.63l17.39,67.93c4.81,14.75,20.91,33.76,32.99,42.38l31.39,22.39c1.33.95,3.34,1.35,4.71.55,3.16-1.86,1.37-7.28,3.5-8.83,5.99-4.36,12.35-7.52,19.31-10.04,2.68-.97,6-1.34,6.34-.26.06.2-.06,1.22-.19,1.38l-4.33,5.45c-.46.58-.92,1.65-.64,2.09s1.52.76,2.22.74l6.7-.24c.28,0,.92.83.85,1.08-.05.16-.3.9-.42,1.01l-4.66,4.16c-3.1,2.77-6.28,4.81-8.99,8.24l23.58-6.55c2.03-.56,3.68-.53,6.46-.39l-6.74,7.82c-1.75,2.03-3.52,3.65-4.87,6.33,6.31-.18,11.74-4.48,17.46-4.13-1.55,5.31-6.71,7.97-8.11,11.99,3.95-1.08,6.49-3.4,9.58-5.44,4.41-2.89,8.48-6.21,14.1-7.67-2.33,6-11.01,8.46-11.85,12.48,4.18-1.6,7.54-3.11,11.49-3.34-1.07,3.53-2.08,5.63-1.59,9.17l6.41-3.58c6.07-3.39,11.05-8.06,14.94-13.85,1.26-1.88,2.76-3.51,4.75-4.98.94,4.18-.52,7.57-2.19,10.82-1.04,2.03-3.02,2.14-4.76,3.07-5.26,2.81-9.49,6.93-13.79,11.64,3.35,1.32,7.53-1.11,7.75,2.34l.65,10.37c.19,3.07,5.16,1.08,5.56,4.47l.51,4.36c.21,1.84,1.35,2.87,3.16,2.91,4.43.1.82-9.1,5.42-18.26.62-1.24,1.99-2.45,3.45-1.96l1.97,10.52c.83,4.45,1.25,8.73,2.93,13,1.88,1.43,6.61,1.38,7.99-.91,1.59-4.81.66-10.71-1.66-15.1-.79-1.5-2.29-2.75-2.32-4.58-.11-8.98-.06-22.56,7.56-27.26l-.27,11.92c-.1,4.39-.8,9.01.22,13.31,1.62,6.91,2.9,13.54,3.38,20.59.37,5.54,5.85,7.26,7.25,6.41.52-.32,1.32-1.58,1.44-2.27l1.37-8.23c.35-2.07,1.04-4.59,2.87-5.88.92-.23,2.24,1.11,3.75,2.5l2.07-7.63c1.46-5.35,4.79-9.45,5.34-8.33l.76,1.56.52,19.13c.26,2.79.3,5.63,1.44,8.23s5.04,2.22,5.53-.63l1.14-6.63c.21-1.2,1.5-2.33,2.56-2.22,3.35.34,3.2,6.24,6.25,8.73,1.75,1.42,5.25.49,6.88-.97.66-1.25.01-3.51-.51-4.89-1.83-4.82-3.71-12.84-1.99-13,1.54-.15,4.48,3.26,6.28,5.68l4.61,6.15c1.44,1.92,5.16,3.19,6.78.65.95-1.73-.4-4.96-1.1-6.87l-5.77-15.87c-.96-2.64-1.39-5.14-.52-8.37,2.61,3,4.06,6.08,5.83,9.31l6.63,12.1c1.77,3.23,5.56,5.15,6.94,3.4.38-.48.85-1.79.72-2.41l-2.11-10.43c-.4-1.99-.79-3.91-.23-5.97,1.68.31,3.14,1.3,4.34,2.35l8.73,7.57c-.68-7.27-7.65-14.36-9.78-22.07,5.65,2.17,9.59,8.1,14.55,10.77-1.62-5.96-3.71-10.19-3.53-16.16l6.72,3.21c1.79.86,3.24,1.4,5.62,1.89-1.1-2.74-2.59-4.47-4.12-6.74l-4.51-6.7c1.37-.62,2.68-.53,3.75.27l10.17,7.58c3.13,2.33,5.88,4.86,9.96,5.89-.37-2.68-1.79-4.09-3.13-6.05l-4.41-6.44c-.23-.33-.19-1.5.13-1.53l1.33-.09,12.62,6.61c2.64,1.47,4.89,2.99,8.2,3.19-1.29-3.25-3-5.1-4.85-7.57l-5.03-6.72c-.26-.35-.22-1.67.14-1.69.27-.01,1.1,0,1.45.15l10.5,4.08-2.41-6.6c-.32-.88,1.5-1.57,2.59-1.54l14.57.39c-2.88-5.95-9.79-8.45-13.48-13.16,7.77-.28,14.82,1.58,21.63,4.27,2.79,1.1,5.23,3.46,5.63,6.38l1.05,7.71c.17,1.26.8,2.4,2.02,3.09l-51.05,38.22-15.14,9.94c-17.89,11.74-42.7,17.89-64.08,19.88l-5.37-.28-18.7.11c-31.34-2.89-62.7-16.87-90.07-32.21-22.15-12.42-43.29-25.93-64.09-40.44-9.06-6.32-17.43-12.73-25.7-19.97-.07-.07-.15-.13-.22-.2-13.63-11.95-23.11-27.92-27.1-45.6,0,0-4.99-15.02-6.67-29.57Z"></path><path class="st0" d="M196.28,527.83c1.05-.78,2.22-.64,3.52-.03,3.04,1.42,4.76,3.46,4.79,6.94l.16,17.73.69,11.42c.06.99,1.33,2.29,2.09,2.21.66-.07,2.08-.88,2.3-1.58l2.71-8.4c.12-.38.45-1.1.68-1.35,1.07-1.16,8.02,2.69,8.94,6.92-.6,3.3-2.97,6.61-4.71,9.52-4.19,7-10.68,18.26-6.53,24.78,4.82,7.59,11.58,13.72,19.41,18.02.6.33,1.9.31,2.38.04,1.76-1.01-.93-6.16-2.88-9.59l-4.89-8.6c-2.26-3.98-2.53-8.79-.6-12.97l5.15-11.16c1.25-2.71,1.71-5.25.99-8.25-3.06-12.61-8.64-24.43-16.96-34.36-3.86-4.61-10.46-8.39-16.07-8.7l-.77-2.54c.15-3.67,2.07-8.01,6.01-9.37,4.88-1.68,13.78,2.42,19.08,5.56,1.55.92,2.56,2.38,3.06,4.16,5,17.56,7.89,35.07,10.68,53.16l9.08,59,3.75,20.68-10.14-.48c-7.23-1.14-13.1-5.51-18.58-10.03-3.06-2.52-5.35-5.53-7.77-8.51-8.4-10.35-11.96-22.56-12.64-35.71l-2.89-56.31-.03-12.22Z"></path><path class="st2" d="M196.28,527.83l.4-9.95.77,2.54c5.61.3,12.21,4.08,16.07,8.7,8.31,9.94,13.89,21.75,16.96,34.36.73,2.99.27,5.53-.99,8.25l-5.15,11.16c-1.93,4.19-1.67,8.99.6,12.97l4.89,8.6c1.95,3.43,4.64,8.58,2.88,9.59-.48.27-1.78.29-2.38-.04-7.83-4.3-14.59-10.44-19.41-18.02-4.15-6.53,2.34-17.78,6.53-24.78,1.74-2.91,4.11-6.21,4.71-9.52-.92-4.22-7.88-8.08-8.94-6.92-.23.25-.56.97-.68,1.35l-2.71,8.4c-.23.7-1.64,1.51-2.3,1.58-.76.08-2.03-1.22-2.09-2.21l-.69-11.42-.16-17.73c-.03-3.47-1.76-5.52-4.79-6.94-1.3-.61-2.48-.75-3.52.03Z"></path><path class="st0" d="M739.46,543.6l-.15,4.54-.2,14.9.06,13.92-.3,14.87c-.12,4.42.09,6.54-.54,10.58-.81,10.9-2.9,21.59-8.41,31.11-3.61,6.24-8.85,11.27-14.68,15.95-.63-3.87.64-6.79.98-10.14l2.52-24.98c.29-2.87,6.87-6.79,10.91-14.34s1.16-15.43-.39-22.67l-3.01-14.05c1.74.86,3.07,1.63,3.91,1.28.71-.3,1.73-1.89,1.76-2.67l.4-13.26c.08-2.53-.41-6.14,1-8.25l5.63-8.47.52,11.68Z"></path><path class="st2" d="M720.95,588.02l1.38-19.2.7-11.66,1.2-17.68,1.36-1.52,9.15-12.57c.62-.86,3.09-.96,4.11-.94l.92-2.7.41,2.85v18.27s-.72.74-.72.74l-.52-11.68-5.63,8.47c-1.41,2.11-.92,5.72-1,8.25l-.4,13.26c-.02.78-1.05,2.37-1.76,2.67-.83.35-2.17-.42-3.91-1.28l3.01,14.05c1.55,7.25,4.33,15.31.39,22.67s-10.62,11.47-10.91,14.34"></path><path class="st0" d="M739.77,521.74l-.92,2.7c-1.02-.02-3.48.09-4.11.94l-9.15,12.57-1.36,1.52,1.36-21c.21-3.28-.6-6.54,2.29-9.1,1.86-1.65,5.15-3,7.56-1.59,3.23,1.9,3.45,5.78,3.82,9.17l.52,4.79Z"></path><path class="st5" d="M547.16,613.19c-.73.39-1.91,1.25-2.53,1.85-1.49,1.47-1.15,3.37.29,4.55l15.04,12.31,3.61,2.95c.21.17,1.28.2,1.54.17,1.18-.11-1.92-3.06-1.58-5.2l12.06,5.19,17.83,8.04,1.32-.02c.26,0,.25-.76.25-1.06v-1.24c-.02-.36,1.2-.44,1.68-.47,7.58,2.9,14.75,6.22,21.42,10.73,5.46,3.68,9.48,8.23,11.27,14.85-1.46-.06-2.71-.48-3.9-.98l-9.01-3.77,3.49,9.27,2.74,8.27c.1.31-.1,1.37-.3,1.6-.27.31-1.31.55-1.72.47-6.62-1.26-12.22-4.11-17.75-7.8-1.19-.8-2.73-.85-3.89-.08,1.07-3.47-3.25-8.01-7.19-9.85l-6.07,3.29-1.45-1.6-18.69-2.43c-7.11-1.18-13.77-2.88-20.49-5.45-.5-.05-1.53-.18-1.81.1-.77.78-.18,2.82-.87,2.95l-1.48.27-15-5.73c-.17-.08-1.5-.41-1.53-.1l-.14,1.54c-.08.93-.39,2.2-.89,3.12-5.57-.35-11.27-1.89-15.12-6.06-7.29-7.88-7.23-20.19-10.68-20.9l-9-1.85c-.95.73-1.74,2.16-2.09,3.28l-3.46,11.03c-2.72,6.33-8.04,12.2-15.18,13.38-5.89.97-12.15.43-17.97-.35-2.59-.34-4.46-1.11-7,.09-3.18,1.51-6.53,2.53-10.08,3.4-12.3,2.3-24.43,3.38-36.9,3.55l-2.07,1.27c-.51.31.37,1.75.66,2.15-3.32-2.15-7.38-3.83-11.27-1.84-.83.42-2.36,1.84-2.9,2.69l-.61-1.81-13.02,8.44-10.81,6.98c-1.58-5.3-.05-9.29,1.39-14.37-3.3-1.16-6.1,2.96-10.8,3.69,1.2-2.71,2.38-4.53,4.2-6.66l5.64-6.56c.29-.34.66-1.84.29-1.99-2.4-1.02-4.17,0-5.56-1.25l11.09-7.95,10.01-8.69c2.93-2.54,6.56-4.06,10.42-5.11l-1.33,4.46c-.15.51,1.19,1.09,1.64.93l11.66-4.31,17.56-6.42c.96-.35,1.8-.49,3.06-.52l-4.95,7.63,5.53-3.02,22.53-13.85c.75-.46,1.66-1.97,1.61-2.73s-1.19-2-1.86-2.36l-2.9-1.54.51-.7c.75-.5,4.4,1.97,8.43.07,6.66-3.14,13.67-4.1,21.08-3.01,4.48,3.95,6.41,9.41,13,11.52,4.9.98,8.02,1.01,12.01,3.99l2.47.81c.46.13.64.16,1.53-.17,2.28.09,4.03-.51,5.44-2.22,5.35-1.88,10.04-4.38,14.93-7.19l8.22-4.73,11.33,2.04c4.11.71,8,.95,12.15.41l.91.63Z"></path><path class="st1" d="M363.84,399.32c-16.91-1.27-40.59-3.13-55.45,3.16l-12.13,6.11c-8.85,4.46-16.44,10.29-24.84,16.48.18-3.37,2.31-5.92,3.91-8.61,5.69-9.55,13.03-17.18,22.13-23.52,11.58-8.07,24.18-13.75,38.07-16.58l13.95-2.23c12.11-.5,23.84-.81,35.97-.13,8.04.46,15.82,2.92,22.42,7.27,7.55,4.97,12.67,12.38,16.64,20.29,1.68,3.34,3,6.53,3.34,10.66l-36.17-8.55c-9.29-2.2-18.28-3.62-27.83-4.33Z"></path><path class="st1" d="M647.87,398.51l-24.04.07c-11.52.63-22.77,3.14-34.05,5.92l-18.77,6.14-16.7,5.37c5.49-15.46,19.01-33.45,34.5-38.34,20.85-6.59,48.65-1.79,68.52,7.11,7.24,3.24,13.43,7.66,19.49,12.72,7.54,6.29,12.86,14.94,15.89,24.32-1.41.1-2.38-.54-3.31-1.49-5.21-5.3-10.71-10.42-17.42-13.66l-10.43-5.03c-4.11-1.98-8.95-3.14-13.69-3.13Z"></path><path class="st2" d="M574.99,682.2l-.66.66-2.53,2.24c-11.42,9.08-24.61,14.91-38.94,18.18-28.72,6.55-58.53,5.8-86.93-1.94-10.67-2.91-20.43-6.95-29.99-12.25-1.54-.85-2.62-2.26-3.87-3.31l-1.98-1.76c6.9,1.83,13.76,2.17,20.96,2.48l27.8,1.18,7.8-.03,17.27,2.86c6.41,1.06,13.03.83,19.47-.07l26.03-3.63,9.65-.44,21.07-1.52,14.86-2.65Z"></path><path class="st2" d="M492.05,624.56c-.43-.13-1.69-.53-1.69-.53-4.59-1.69-7.28-3.43-12.18-4.41-6.59-2.11-8.52-7.57-13-11.52-7.4-1.09-14.42-.13-21.08,3.01-4.03,1.9-7.68-.56-8.43-.07l-.51.7c-8.14-4.31-12.49-13.33-11.79-22.78.5-6.74,1.54-13.19,6.33-18.59,1.09,1.49,1.28,3.32,1.47,5.16l1.37,13.82c1.25,6.26,5.29,11.75,11.6,13.39,2.9.76,5.14-2.64,5.27-5.08.02-.34.64-1.2.77-1.27.48,1.17,1.51,2.32,2.76,2.88,5.91,2.67,18.86,6.54,19.75,3.75l.68-2.21c.73.34.83,1.28.37,2.65,8.46,8.17,12.8,8.34,23.56,8.04,6.7-.18,12.09-3.4,16.18-8.37-.1,6.14,14.91,3.8,21.25-.68l2.36-1.67.14.85c.06.3,1.13.62,1.45.5l4.54-1.73c4.12-1.57,6.5-5.28,7.31-9.57,1.94-9.97-.07-19.49-3.62-28.93l-6.28-16.72c15.65,5.52,23.11,26.07,23.2,41.33.06,11.58-6.98,21.47-16.67,26.68l-.91-.63c-4.14.53-8.04.3-12.15-.41l-11.33-2.04-8.22,4.73c-4.89,2.81-8.76,6.56-13.9,8.96"></path><path class="st2" d="M503.27,752.23c-13.07,1.36-23.32,1.6-33.94-6.12-1.92-1.4-2.33-3.42-3.48-5.27l-5.34-8.55c-1.43-2.3-2.73-4.8-3.2-7.41-.38-2.13,1.02-3.88,3.04-3.98l26.49-1.2,32.04-1.23,8.53.1c2.81.03,4.56,2.9,3.98,5.79-1,5.01-5.92,8.35-9.26,17.15-.36.95-1.68,1.89-2.61,1.79l-5.55-.58c-1.23-.13-2.48.97-2.76,2.22-.87,3.98-3.68,6.84-7.95,7.28Z"></path><path class="st1" d="M599.03,672.8c-.56,1.83-2.66,3.42-4.64,4.18-6.3,2.43-12.72,4.02-19.4,5.22l-14.86,2.65-21.07,1.52-9.65.44-26.03,3.63c-6.43.9-13.06,1.13-19.47.07l-17.27-2.86-7.8.03-27.8-1.18c-7.19-.31-14.06-.65-20.96-2.48l-16.06-4.25h-6.18c-3.62,0-7.27-1.16-9.07-4.53-.06-1.92.55-4.88,1.57-6.49.54-.86,2.07-2.27,2.9-2.69,3.89-1.99,7.95-.31,11.27,1.84l6.69,4.34,2.78,1.41c7.7,3.31,15.71,4.58,24.08,5.31l3.99-.24,23,.97,21.24,2.7c3.94.5,7.89,1.44,11.81,1.43h10.63c6.06-.01,11.86-1.9,17.87-2.56l24.32-2.68,12.54-.84c6.51-.44,12.84-1.93,18.97-3.99l2.44-1.24,10.89-6.27,6.07-3.29c3.94,1.85,8.26,6.38,7.19,9.85Z"></path><path class="st4" d="M519.35,557.4c-.06,2.92-1.8,5.64-4.4,6.3-3,.77-5.77-1.59-6.34-4.63-1.62-8.65-1.33-17.55,1.04-26,.5-1.78,2.64-4,4.4-2.8,4.7,3.22,5.47,19.18,5.3,27.12Z"></path><path class="st1" d="M537.27,600.9l-2.54,1.55c-6.34,4.48-21.35,6.82-21.25.68,2.44-2.96,5.04-6.04,8.42-8.31,6.68-4.48,14.7-3.16,16.01,1.08.49,1.6,0,3.63-.64,5Z"></path><path class="st2" d="M604.89,739.54c11.1-1.59,30.25,14.19,26.58,19.4-.54.77-2.69,1.26-3.8.52-8.24-5.48-16.01-11.86-22.78-19.91Z"></path><path class="st1" d="M473.36,600.81l-.68,2.21c-.89,2.79-13.84-1.08-19.75-3.75-1.25-.57-2.28-1.72-2.76-2.88,3-5.89,12.36-5.44,18.49-1.8,2.4,1.42,3.82,3.79,4.7,6.23Z"></path><path class="st2" d="M636.41,747.1c-1,2-6.5.3-8.89-2.32l-13.03-14.34c-.75-.83-1.12-2.18-1.04-3.42,8.69,1.87,26.18,13.62,22.95,20.08Z"></path><path class="st2" d="M347.71,748.97c-2.13-.29-3.68-2.05-4.12-4.04l4.75-4.47c6.32-4.27,12.66-8.09,19.71-11,.38-.07,1.9-.31,1.82.09l-.36,1.91c-5.99,7.14-13.06,13.12-21.8,17.51Z"></path><path class="st2" d="M347.75,759.79c-1.31.33-2.96.16-4.15-.33.79-1.65,1.88-2.77,3.28-3.66,6.27-4,12.9-7.07,20.08-9.15,1.61-.47,3.1-.37,4.96.02-.82,1.87-1.67,2.86-3.09,3.81-6.4,4.31-13.33,7.38-21.09,9.31Z"></path><path class="st2" d="M285.46,697.34c-2.19,2.74-5.52,6.81-7.14,6.19-1.72-.66-.39-4.36,1.98-7.09,5.86-6.73,12.33-12.63,19.53-17.85,1.5-1.09,3.04-2.16,5.07-1.38l-8.94,9.06-3.47,2.29-7.03,8.77Z"></path><path class="st2" d="M272.13,667.87c-1.14,1.48-3.33,3.15-4.82,1.7-3.88-3.79,10.06-16.4,15.86-20.63,1.24-.9,2.27-1.31,4.31-1.66l-3.35,5.03-12,15.55Z"></path><path class="st2" d="M343.3,737.08c-2.63,1.47-5.02,2.23-8.13,2.31.69-2.24,2.03-3.69,3.81-4.97,7.19-5.2,15.03-10.1,24.23-12.22-5.74,6.34-12.69,10.85-19.91,14.87Z"></path><path class="st2" d="M448.79,786.21c2.33,2.67.29,8.24-1.57,12.37-.53,1.17-2.74,2.02-3.71,1.14-4.32-3.89,4.8-18.12,9.4-23.74.76-.92,1.94-1.62,3.11-1.73-.51,5.02-3.43,9.03-7.23,11.96Z"></path><path class="st2" d="M353.66,712.27c2.53,6.02-14.11,11.54-21.42,10.43.93-2.45,2.7-3.6,4.71-4.72,5.12-2.85,10.85-4.63,16.71-5.71Z"></path><path class="st2" d="M659.24,735.96c-5.53-3.95-12.73-13.87-11.53-20.37,1.73.83,2.43,1.58,3.43,2.77,3.08,5.48,6.34,10.77,8.1,17.6Z"></path><path class="st2" d="M684.87,645.66c8.85,9.67,7.5,19.8,6.61,19.12l-1.27-.98-7.88-18.22c.75-.44,2.07-.43,2.54.07Z"></path><path class="st2" d="M639.08,718.35c-6.38-.79-12.75-2.9-17.49-7.42,6.24-1.64,18.61,1.49,17.49,7.42Z"></path><path class="st2" d="M293.08,719.32c-.51-5.69,10.56-10.31,17.04-10.03-4.09,5.4-10.04,8.35-17.04,10.03Z"></path><path class="st2" d="M533.91,788.15c2.41,4.84,5.68,13.3,2.77,16.94l-1.75-1.33c-1.77-4.87-3.07-9.48-3.82-14.61l.99-1.96c.21-.42,1.58.5,1.81.96Z"></path><path class="st2" d="M475.05,806.07c1.91,6.72-4.09,13.23-5.72,10.56-2.04-3.33-1.1-7.56,1.41-10.35.9-1,3.66-1.41,4.31-.21Z"></path><path class="st2" d="M275.75,640.86c2.58-.38-6.79,15-10.11,14.18-.44-.11-.76-1.05-.9-1.76,2.36-4.87,5.38-8.96,9.58-12.2l1.43-.21Z"></path><path class="st2" d="M477.65,787.59c1.98,4.33-.36,11.41-5.95,11.57-1.43-7.18,4.78-14.11,5.95-11.57Z"></path><path class="st2" d="M684.61,672.83c3.62,2.73,9.6,7.87,8.38,11.22-1.88-.68-3.19-1.68-4.61-2.98-3.18-2.92-6.44-5.45-8.5-9.75,1.71-.24,3.37.49,4.73,1.51Z"></path><path class="st2" d="M282.09,676.07c-1.8,1.7-3.71,2.59-6.26,3.33-.11-.96.09-1.89.44-2.78l11.71-8.52c.44.02,1.38.04,1.35.31s-.26,1.04-.53,1.3l-6.7,6.35Z"></path><path class="st2" d="M273.8,631.21c2.63-.39-10.02,15.17-10.37,12.3l-.19-1.52c2.15-4.27,5.1-7.99,9.13-10.56l1.43-.21Z"></path><path class="st2" d="M673.02,464.34l-8.57-6.61c-16.01-11.3-35.1-17.31-54.82-17.18-13.45.09-26.07,3.43-38.04,9.11l-14.5,7.82c.77-3.76,3.83-4.89,6.14-7.17,9.39-5.97,19.43-10.81,30.61-12.91,12.3-2.31,24.8-2.43,37.07.29,12.94,2.87,24.61,9.21,34.96,17.15,3.25,2.49,5.65,5.42,7.73,8.75l.17.5-.03.77-.71-.52Z"></path><path class="st2" d="M410.55,451.03c-31.5-16.17-65.62-16.82-97.15-.39l-17.48,10.28c5.4-7.31,12.61-12.02,20.55-15.83,9.31-4.47,18.53-8.43,28.86-9.97s20.86-1.86,31.44-.61c13.6,1.6,33.08,9.13,42.05,20.07l-8.27-3.56Z"></path><path class="st0" d="M585.77,666.24l-10.89,6.27-16.59-2.46-25.49-3.39c-17.15-2.28-31.25,5.04-53.27,1.45-12.41-2.02-24.47-2.76-36.97-.98l-26.93,3.85c-4.99.71-9.71,1.1-14.42,1.25l-6.69-4.34c-.28-.4-1.17-1.84-.66-2.15l2.07-1.27c12.47-.17,24.59-1.24,36.9-3.55,3.56-.88,6.91-1.89,10.08-3.4,2.54-1.21,4.41-.44,7-.09,5.82.77,12.08,1.32,17.97.35,7.14-1.18,12.46-7.05,15.18-13.38l3.46-11.03c.35-1.12,1.14-2.55,2.09-3.28l9,1.85c3.44.71,3.39,13.02,10.68,20.9,3.85,4.17,9.55,5.71,15.12,6.06.5-.92.8-2.19.89-3.12l.14-1.54c.03-.31,1.36.02,1.53.1l15,5.73,1.48-.27c.69-.12.1-2.17.87-2.95.28-.28,1.31-.16,1.81-.1,6.73,2.57,13.38,4.27,20.49,5.45l18.69,2.43,1.45,1.6Z"></path><g>
    <path class="st1" d="M422.74,480.13c-7.08-3.67-14.3-6.86-21.88-9.3l-7.3-1.92,1.02,6.29c.42,4.51.28,9.1-1.36,13.6s-4.44,8.73-8.33,11.14c-9.37,5.78-21.03,7.28-31.57,4.59-.73-.19-1.76-.52-2.45-.92l-3.75-2.16c-7.62-5.34-11.71-14.31-11.04-23.76.06-.87-1.06-3.02-1.99-2.64-9.7,3.96-18.53,8.92-27.31,14.05l-4.82,2.81c-3.37,1.97-10.37,3.07-12.05.23-2.1-3.56,4.99-11.18,9.5-14.67,17.37-13.45,41.63-20.76,63.45-22.75,16.96-1.55,34.67,1.35,50.17,8.31,3.84,1.73,7.16,4.14,10.4,6.83,2.4,1.99,4.54,5.29,3.95,8.55-.36,1.45-3.49,1.7-4.65,1.72ZM358.62,481.27c.92-1.47.77-3.64.05-4.96-1.03-1.88-6.21-4.92-9.44-1.25-1.35,1.54-2.35,3.27-1.64,5.52.43,1.34,1.92,2.89,3.77,3.3,2.58.57,5.69-.1,7.26-2.6Z"></path>
    <path class="st0" d="M710.79,498.06l.06-16.36.26-8.5-.34-14.8-.56-7.14-2.18-51.85c-.22-5.13-.41-9.78-3.26-14.18-2.14-3.31-3.95-7.06-4.69-11.03l-2.72-14.57-2.79-13.56c-.92-4.47-12.03-4.82-18.78-11.49l-5.32-5.25c-1.76-1.73-3.09-4.41-5.58-5.48-1.7-.73-5.69-.83-7.39-.05l-8.87,4.13c-4.74,2.2-9.35,2.85-14.55,2.73-4.66-.11-9,0-13.29-2.06-.76-.37-1.36-1.7-.82-2.25l5.02-5.11c.22-.22.82-1.29.54-1.39-.28-.1-1.34-.37-1.69-.29l-8.95,1.99c-5.55.6-11.06.78-16.55-.3-10.87-2.14-20.41-8.81-26.8-17.64-1.41-1.95-2.65-2.37-4.98-1.56-17.3,6.04-37.8.81-48.72-14.57-1.89.02-3.47.41-5.33.82-7.41,1.63-14.92.41-21.98-2.2-10.2-3.77-13.71-11.64-16.84-10.96-.72.16-1.79,1.03-2.49,1.7-9.3,8.98-14.73,10.64-26.84,13.38-4.62,1.05-9.01.93-13.8.84-1.1-.02-2.67,1.2-3.52,2.1-12.12,12.79-27.39,10.8-40.29-.21-1.41-1.2-2.72-1.34-4.25-.18-5.79,4.39-11.93,7.91-18.4,11.28l-11.39,5.93c-4.98,3.08-10.01,5.54-15.56,7.5-2.19.77-4.12,2.17-5.6,3.99-4.76,5.87-11.58,12.4-19.17,12.43l-9.05.04c-1.39,0-3.4-.1-4.41.94-6.33,6.6-13.07,12.29-20.82,17.1l-9.44,4.51c-2.09,1-3.69,2.62-4.32,4.82-2.36,8.24-6.65,14.96-12.42,21.19-1.15,1.24-2.08,3.72-2.71,5.38-3.26,8.67-4.67,17.43-5.6,26.63l-3.03,29.89-.75,20.54-.15,11.73v14.86s.13,11.68.13,11.68l1.66,30.56,4.33,33.55,10.08,61.84,10.12,48.93,2.34,8.46,7.97,24.45c4.81,14.75,20.91,33.76,32.99,42.38l31.39,22.39c1.33.95,3.34,1.35,4.71.55,3.16-1.86,1.37-7.28,3.5-8.83,5.99-4.36,12.35-7.52,19.31-10.04,2.68-.97,6-1.34,6.34-.26.06.2-.06,1.22-.19,1.38l-4.33,5.45c-.46.58-.92,1.65-.64,2.09s1.52.76,2.22.74l6.7-.24c.28,0,.92.83.85,1.08-.05.16-.3.9-.42,1.01l-4.66,4.16c-3.1,2.77-6.28,4.81-8.99,8.24l23.58-6.55c2.03-.56,3.68-.53,6.46-.39l-6.74,7.82c-1.75,2.03-3.52,3.65-4.87,6.33,6.31-.18,11.74-4.48,17.46-4.13-1.55,5.31-6.71,7.97-8.11,11.99,3.95-1.08,6.49-3.4,9.58-5.44,4.41-2.89,8.48-6.21,14.1-7.67-2.33,6-11.01,8.46-11.85,12.48,4.18-1.6,7.54-3.11,11.49-3.34-1.07,3.53-2.08,5.63-1.59,9.17l6.41-3.58c6.07-3.39,11.05-8.06,14.94-13.85,1.26-1.88,2.76-3.51,4.75-4.98.94,4.18-.52,7.57-2.19,10.82-1.04,2.03-3.02,2.14-4.76,3.07-5.26,2.81-9.49,6.93-13.79,11.64,3.35,1.32,7.53-1.11,7.75,2.34l.65,10.37c.19,3.07,5.16,1.08,5.56,4.47l.51,4.36c.21,1.84,1.35,2.87,3.16,2.91,4.43.1.82-9.1,5.42-18.26.62-1.24,1.99-2.45,3.45-1.96l1.97,10.52c.83,4.45,1.25,8.73,2.93,13,1.88,1.43,6.61,1.38,7.99-.91,1.59-4.81.66-10.71-1.66-15.1-.79-1.5-2.29-2.75-2.32-4.58-.11-8.98-.07-22.56,7.56-27.26l-.27,11.92c-.1,4.39-.8,9.01.22,13.31,1.62,6.91,2.9,13.54,3.38,20.59.37,5.54,5.85,7.26,7.25,6.41.52-.32,1.32-1.58,1.44-2.27l1.37-8.23c.35-2.07,1.04-4.59,2.87-5.88.92-.23,2.24,1.11,3.75,2.5l2.07-7.63c1.46-5.35,4.79-9.45,5.34-8.33l.76,1.56.52,19.13c.26,2.79.3,5.62,1.43,8.22.62,1.41,5.19,1.39,5.45-.12l1.23-7.13c.21-1.2,1.5-2.33,2.56-2.22,3.35.34,3.2,6.24,6.25,8.73,1.75,1.42,5.25.49,6.88-.97.66-1.25.01-3.51-.51-4.89-1.83-4.82-3.71-12.84-1.99-13,1.54-.15,4.48,3.26,6.28,5.68l4.61,6.15c1.44,1.92,5.16,3.19,6.78.65.95-1.73-.4-4.96-1.1-6.87l-5.77-15.87c-.96-2.64-1.39-5.14-.52-8.37,2.61,3,4.06,6.08,5.83,9.31l6.63,12.1c1.77,3.23,5.56,5.15,6.94,3.4.38-.48.85-1.79.72-2.41l-2.11-10.43c-.4-1.99-.79-3.91-.23-5.97,1.68.31,3.14,1.3,4.34,2.35l8.73,7.57c-.68-7.27-7.65-14.36-9.78-22.07,5.65,2.17,9.59,8.1,14.55,10.77-1.62-5.96-3.71-10.19-3.53-16.16l6.72,3.21c1.79.86,3.24,1.4,5.62,1.89-1.1-2.74-2.59-4.47-4.12-6.74l-4.51-6.7c1.37-.62,2.68-.53,3.75.27l10.17,7.58c3.12,2.33,5.88,4.86,9.96,5.89-.37-2.68-1.79-4.09-3.13-6.05l-4.41-6.44c-.23-.33-.19-1.5.13-1.53l1.33-.09,12.62,6.61c2.64,1.47,4.89,2.99,8.2,3.19-1.29-3.25-3-5.1-4.85-7.57l-5.03-6.72c-.26-.35-.22-1.67.14-1.69.27-.01,1.1,0,1.45.15l10.5,4.08-2.41-6.6c-.32-.88,1.5-1.57,2.59-1.54l14.57.39c-2.88-5.95-9.79-8.45-13.48-13.16,7.77-.28,14.82,1.58,21.63,4.27,2.79,1.1,5.23,3.46,5.63,6.38l1.05,7.71c.17,1.26.8,2.4,2.02,3.09,17.18-12.86,40.2-33.79,50.24-52.8,6.18-11.69,10.27-23.57,13.15-36.45,3.5-15.7,5.82-31.15,7.22-47.23l4.81-55,3.2-58.67.82-4.86.26-12.92c.07-3.46-.34-6.41-.33-9.85ZM588.81,377.66c20.85-6.59,48.65-1.79,68.52,7.11,7.24,3.24,13.43,7.66,19.49,12.72,7.54,6.29,12.86,14.94,15.89,24.32-1.41.1-2.38-.54-3.31-1.49-5.21-5.3-10.71-10.42-17.42-13.66l-10.43-5.03c-4.11-1.98-8.95-3.14-13.69-3.13l-24.04.07c-11.52.63-22.77,3.14-34.05,5.92l-18.77,6.14-16.7,5.37c5.49-15.46,19.01-33.45,34.5-38.34ZM691.48,664.78l-1.27-.98-7.88-18.22c.75-.44,2.07-.43,2.54.07,8.85,9.67,7.49,19.8,6.61,19.12ZM673.59,463.59l-.56.75-8.57-6.61c-16.01-11.3-35.1-17.31-54.82-17.18-13.45.09-26.07,3.43-38.04,9.11l-14.5,7.82c.77-3.76,3.83-4.89,6.14-7.17,9.39-5.97,19.43-10.81,30.61-12.91,12.3-2.32,24.8-2.43,37.07.29,12.94,2.87,24.61,9.21,34.96,17.15,3.25,2.49,5.65,5.42,7.73,8.75ZM567.51,383.7l1.5-.18c2.39-.29-5.75,14.93-12.71,17.35,1.89-7,6.04-12.67,11.22-17.17ZM551.74,388.59c.83-1.61,1.83-3.02,3.8-3.57.36,1.17.56,3,.21,4.09l-6.97,21.86c-.34,1.06-.9,1.69-2.23,3.09-2.76-6.33,1.78-18.85,5.19-25.48ZM522.65,468.9c1.24-9.13,5.34-17.42,11.14-24.3,4.39-4.8,9.4-8.15,15.79-9.49l1.82.62c.42.14.45,1.69.22,2.11l-2.44,4.37c-7.64,10.4-13.55,22.13-15.67,34.99l-1.18,12.62c-.1,1.02-1.08,2.23-1.74,2.39-4.12,1.02-9.34-13.02-7.94-23.31ZM441.19,409.12c.12,2.15.01,4.14-1.79,5.26l-10.03-25.84c-.94-2.43-1.59-4.84-1.68-7.64,8.73,4.38,12.94,18.32,13.5,28.21ZM416.68,381.57c3.57,3.05,6.91,6.63,9.51,10.42l-1.96,3.11-3.68-4.91c-2.06-2.75-4.17-5.09-7.23-6.75l-.98-2.76c1.04-.35,3.14-.12,4.34.9ZM275.32,416.46c5.69-9.55,13.03-17.18,22.13-23.52,11.58-8.07,24.18-13.75,38.07-16.58l13.95-2.23c12.11-.5,23.84-.81,35.97-.13,8.04.46,15.82,2.92,22.42,7.27,7.55,4.97,12.67,12.38,16.64,20.29,1.68,3.34,3,6.53,3.34,10.66l-36.17-8.55c-9.29-2.2-18.28-3.62-27.83-4.33-16.91-1.27-40.59-3.13-55.45,3.16l-12.13,6.11c-8.85,4.46-16.44,10.29-24.84,16.48.18-3.37,2.31-5.92,3.91-8.61ZM424.07,481.81c1.09,2.17-13.06,10.81-19.13,12.9l-19.59,6.75-.46-1.52c-9.37,5.78-21.03,7.28-31.57,4.59-.73-.19-1.76-.52-2.45-.92l-3.75-2.16.07,1.49c-10.04-1.22-19.65-3.31-29.31-6.77-4-1.43-11.14-4.53-11.1-7.08l-4.82,2.81c-3.37,1.97-10.37,3.07-12.05.23-2.1-3.56,4.99-11.18,9.5-14.67,17.37-13.45,41.63-20.76,63.45-22.75,16.96-1.55,34.67,1.35,50.17,8.31,3.84,1.73,7.16,4.14,10.4,6.83,2.4,1.99,4.54,5.29,3.95,8.55-.36,1.45-3.49,1.7-4.65,1.72.45.48,1.08,1.19,1.33,1.68ZM295.93,460.93c5.4-7.31,12.61-12.02,20.55-15.83,9.31-4.47,18.53-8.43,28.86-9.97,10.47-1.56,20.86-1.86,31.44-.61,13.6,1.6,33.08,9.13,42.05,20.07l-8.27-3.56c-31.5-16.17-65.62-16.82-97.15-.39l-17.48,10.28ZM263.43,643.51l-.19-1.52c2.15-4.27,5.1-7.99,9.13-10.56l1.43-.21c2.63-.39-10.02,15.17-10.37,12.3ZM265.64,655.04c-.44-.11-.76-1.05-.9-1.76,2.36-4.87,5.38-8.96,9.58-12.2l1.43-.21c2.58-.38-6.79,15-10.11,14.18ZM267.31,669.57c-3.88-3.79,10.06-16.4,15.86-20.63,1.24-.9,2.27-1.31,4.31-1.66l-3.35,5.03-12,15.55c-1.14,1.48-3.33,3.15-4.82,1.7ZM275.83,679.41c-.11-.96.09-1.89.44-2.78l11.71-8.52c.44.02,1.38.04,1.35.31-.03.27-.26,1.04-.53,1.3l-6.7,6.35c-1.8,1.7-3.71,2.59-6.26,3.33ZM285.46,697.34c-2.19,2.74-5.52,6.81-7.14,6.19-1.72-.66-.39-4.36,1.98-7.09,5.86-6.73,12.33-12.63,19.53-17.85,1.5-1.09,3.04-2.16,5.07-1.38l-8.94,9.06-3.47,2.29-7.03,8.77ZM293.08,719.32c-.51-5.69,10.56-10.31,17.04-10.03-4.09,5.4-10.04,8.35-17.04,10.03ZM332.24,722.7c.93-2.45,2.7-3.6,4.71-4.72,5.12-2.85,10.85-4.63,16.71-5.71,2.53,6.03-14.11,11.54-21.42,10.43ZM335.17,739.39c.69-2.24,2.03-3.69,3.81-4.97,7.19-5.2,15.03-10.1,24.23-12.22-5.74,6.34-12.69,10.85-19.91,14.87-2.63,1.47-5.02,2.23-8.13,2.31ZM348.34,740.46c6.32-4.27,12.66-8.09,19.71-11,.38-.07,1.9-.31,1.82.09l-.36,1.91c-5.99,7.14-13.06,13.12-21.8,17.51-2.13-.29-3.68-2.05-4.12-4.04l4.75-4.47ZM368.84,750.49c-6.4,4.32-13.33,7.38-21.09,9.31-1.31.33-2.96.16-4.15-.33.79-1.65,1.88-2.77,3.28-3.66,6.27-4,12.9-7.07,20.08-9.15,1.62-.47,3.1-.37,4.96.02-.82,1.87-1.67,2.86-3.09,3.81ZM448.79,786.21c2.33,2.67.29,8.24-1.57,12.37-.53,1.17-2.74,2.02-3.71,1.14-4.32-3.89,4.8-18.12,9.4-23.74.76-.92,1.94-1.62,3.11-1.73-.51,5.02-3.43,9.03-7.23,11.96ZM469.33,816.62c-2.04-3.33-1.1-7.56,1.41-10.35.9-1,3.66-1.41,4.31-.21,1.91,6.72-4.09,13.23-5.72,10.56ZM471.7,799.15c-1.43-7.18,4.78-14.11,5.95-11.57,1.98,4.33-.36,11.41-5.95,11.57ZM522.13,741.51c-.36.95-1.68,1.89-2.61,1.79l-5.55-.58c-1.23-.13-2.48.97-2.76,2.22-.87,3.98-3.68,6.84-7.95,7.28-13.07,1.36-23.32,1.6-33.94-6.12-1.92-1.4-2.33-3.42-3.48-5.27l-5.34-8.55c-1.43-2.3-2.73-4.8-3.2-7.41-.38-2.13,1.02-3.88,3.04-3.98l26.49-1.2,32.04-1.23,8.53.1c2.81.03,4.56,2.9,3.98,5.79-1,5.01-5.92,8.35-9.26,17.15ZM536.68,805.09l-1.75-1.33c-1.77-4.87-3.07-9.48-3.82-14.61l.99-1.96c.21-.42,1.58.5,1.81.96,2.41,4.84,5.68,13.3,2.77,16.94ZM602.91,672.89c-1.19-.8-2.73-.85-3.89-.08-.56,1.83-2.66,3.42-4.64,4.18-6.3,2.43-12.72,4.02-19.4,5.22l-.66.66-2.53,2.24c-11.42,9.08-24.61,14.91-38.94,18.18-28.72,6.55-58.53,5.8-86.93-1.94-10.67-2.91-20.43-6.95-29.99-12.25-1.54-.85-2.62-2.26-3.87-3.31l-1.98-1.76-16.06-4.25h-6.18c-3.62,0-7.27-1.16-9.07-4.53-.06-1.92.55-4.88,1.57-6.49l-.61-1.81-13.02,8.44-10.81,6.98c-1.58-5.3-.05-9.29,1.39-14.36-3.3-1.16-6.1,2.96-10.8,3.69,1.2-2.71,2.38-4.53,4.2-6.66l5.64-6.56c.29-.34.66-1.84.29-1.99-2.4-1.02-4.17,0-5.56-1.25l11.09-7.95,10.01-8.69c2.93-2.54,6.56-4.06,10.42-5.11l-1.33,4.46c-.15.51,1.19,1.09,1.64.93l11.66-4.31,17.56-6.42c.96-.35,1.8-.49,3.06-.52l-4.95,7.63,5.53-3.02,22.53-13.85c.75-.46,1.66-1.97,1.61-2.73-.05-.76-1.19-2-1.86-2.36l-2.9-1.54c-8.14-4.31-12.49-13.33-11.79-22.78.5-6.74,1.54-13.19,6.33-18.59,1.09,1.49,1.28,3.32,1.47,5.16l1.37,13.82c1.25,6.26,5.29,11.75,11.6,13.39,2.9.76,5.14-2.64,5.27-5.08.02-.34.64-1.2.77-1.27,3-5.89,12.36-5.44,18.49-1.8,2.4,1.42,3.82,3.79,4.7,6.23.73.34.83,1.28.37,2.65,8.46,8.17,12.8,8.34,23.56,8.04,6.7-.18,12.09-3.4,16.18-8.37,2.44-2.96,4.86-6.16,8.24-8.42,6.68-4.48,14.7-3.16,16.01,1.08.49,1.6,0,3.63-.64,5l.14.85c.06.3,1.13.62,1.45.5l4.54-1.73c4.12-1.57,6.5-5.28,7.32-9.57,1.94-9.97-.07-19.49-3.62-28.93l-6.28-16.72c15.65,5.52,23.11,26.07,23.2,41.33.06,11.58-6.98,21.47-16.67,26.68-.73.39-1.91,1.25-2.53,1.85-1.49,1.47-1.15,3.37.29,4.55l15.04,12.31,3.61,2.95c.21.17,1.28.2,1.54.17,1.18-.11-1.92-3.06-1.57-5.2l12.06,5.19,17.83,8.04,1.32-.02c.26,0,.25-.76.25-1.06v-1.24c-.02-.36,1.2-.44,1.68-.47,7.58,2.9,14.75,6.22,21.42,10.73,5.46,3.68,9.48,8.23,11.27,14.85-1.46-.06-2.71-.48-3.9-.98l-9.01-3.77,3.49,9.27,2.74,8.27c.1.31-.1,1.37-.3,1.6-.27.31-1.31.55-1.72.47-6.62-1.26-12.22-4.11-17.75-7.8ZM631.47,758.93c-.54.77-2.69,1.26-3.8.52-8.24-5.48-16.01-11.86-22.78-19.91,11.1-1.59,30.25,14.19,26.58,19.4ZM636.41,747.1c-1,2-6.5.3-8.89-2.32l-13.03-14.34c-.75-.83-1.12-2.18-1.04-3.42,8.69,1.87,26.18,13.62,22.95,20.08ZM639.08,718.35c-6.38-.79-12.75-2.9-17.49-7.42,6.24-1.64,18.61,1.49,17.49,7.42ZM647.71,715.59c1.73.83,2.43,1.58,3.43,2.77,3.08,5.48,6.34,10.77,8.1,17.6-5.53-3.95-12.73-13.87-11.53-20.37ZM675.62,493.71c-1.16.92-3.7.93-4.99.22l-6.31-3.45-.51.66-3.35,2.41c-12.69,3.03-27.12,5.3-40.03,8.38-.56.13-1.03,1.42-1.58,1.56l-7.55,2.2c-8.85.76-17.42-1.88-24.69-6.19l.02-.08-34.53-15.86c-1.59-.25-3-2-2.79-4.17,1.37-13.97,28.85-21.39,42.45-22.92,21.82-2.44,40.75,1.6,60.52,10.64,5.15,2.36,9.67,5.46,14.08,8.92,5.6,4.4,14.18,13.77,9.27,17.68ZM692.99,684.06c-1.88-.68-3.19-1.68-4.61-2.98-3.18-2.92-6.44-5.45-8.5-9.75,1.71-.24,3.37.49,4.73,1.51,3.62,2.73,9.6,7.87,8.38,11.22Z"></path>
    <path class="st3" d="M347.12,501.46l.07,1.49c-10.04-1.22-19.65-3.31-29.31-6.77-4-1.43-11.14-4.53-11.1-7.08,8.77-5.13,17.61-10.09,27.31-14.05.93-.38,2.05,1.77,1.99,2.64-.67,9.46,3.42,18.42,11.04,23.76Z"></path>
    <path class="st3" d="M358.62,481.27c-1.56,2.5-4.67,3.17-7.26,2.6-1.85-.41-3.34-1.96-3.77-3.3-.71-2.25.28-3.98,1.64-5.52,3.22-3.67,8.4-.63,9.44,1.25.72,1.32.87,3.49-.05,4.96Z"></path>
    <path class="st3" d="M424.07,481.81c-.25-.5-.88-1.21-1.33-1.68-7.08-3.67-14.3-6.86-21.88-9.3l-7.3-1.92,1.02,6.29c.42,4.51.28,9.1-1.36,13.6-1.61,4.41-10.45,11.74-14.34,14.15l6.47-1.49,19.59-6.75c6.07-2.09,20.22-10.73,19.13-12.9Z"></path>
  </g><g>
    <path class="st1" d="M619.18,503.6l-7.71,2.2c-8.85.76-17.6-1.99-24.87-6.3h0l-.99-.84c-5.21-6.19-8.01-14.13-7.15-22.52-.18-1.32-.51-2.64-1.27-3.44-8.91,3.1-16.91,6.93-25.09,10.85-1.59-.25-3-2-2.79-4.17,1.37-13.97,28.85-21.39,42.45-22.92,21.82-2.44,40.75,1.6,60.52,10.64,5.15,2.36,9.67,5.46,14.08,8.92,5.6,4.4,14.18,13.77,9.27,17.68-1.16.92-3.7.93-4.99.22l-6.31-3.45h-.33s-2.44-1.66-2.44-1.66c-7.31-5.65-15.8-10.01-24.58-13.66l-2.44.08c-.61.02-1.25,1.53-1.22,2.18.44,9.53-3.88,18.31-11.18,24.13M597.61,482.91c1.97-1.36,1.89-4.05,1.28-5.85-.67-1.94-2.36-3.43-4.56-3.41-2.74.02-4.85,1.02-6.02,3.09-1.07,1.88-1.23,4.85.93,6.39s6.16,1.31,8.37-.22Z"></path>
    <path class="st3" d="M664.19,490.69c-.8,1.25-1.97,2.21-3.35,2.75-12.42,4.88-37.45,11.21-49.37,12.36l7.55-2.2,4.31-3.37c7.31-5.82,9.92-13.48,9.48-23-.03-.64,1.12-1.96,1.72-1.98l2.44-.08c8.78,3.65,17.27,8.01,24.58,13.66l2.77,1.66-.13.2Z"></path>
    <path class="st3" d="M552.79,485.41c-.34-.35-.69-1.49-.71-1.84,8.18-3.93,16.18-7.75,25.09-10.85.76.79,1.09,2.12,1.27,3.44-.85,8.38,2.94,17.16,8.15,23.35"></path>
    <path class="st3" d="M586.59,499.51"></path>
    <path class="st3" d="M597.61,482.91c-2.21,1.53-6.15,1.81-8.37.22s-2-4.51-.93-6.39c1.18-2.07,3.28-3.06,6.02-3.09,2.19-.02,3.89,1.48,4.56,3.41.62,1.79.69,4.49-1.28,5.85Z"></path>
  </g><path class="st2" d="M574.88,672.5l-2.44,1.24c-6.13,2.05-12.46,3.55-18.97,3.99l-12.54.84-24.32,2.68c-6.01.66-11.81,2.55-17.87,2.55h-10.63c-3.92.01-7.88-.93-11.81-1.43l-21.24-2.7-23-.97-3.99.24c-8.37-.73-16.38-1.99-24.08-5.31l-2.78-1.41c4.71-.15,9.43-.54,14.42-1.25l26.93-3.85c12.51-1.79,24.56-1.05,36.97.98,22.03,3.59,36.13-3.73,53.27-1.45l25.49,3.39,16.59,2.46Z"></path></svg>