<svg width="400" height="400" viewBox="0 0 400 400" fill="none" xmlns="http://www.w3.org/2000/svg">
<path fill-rule="evenodd" clip-rule="evenodd" d="M79.0948 241.118C86.7528 244.865 95.4381 246.738 105.151 246.738C115.61 246.738 125.043 244.678 133.448 240.556C141.187 236.589 147.818 231.51 153.34 225.319V242.242H186.12V161.596C186.12 140.428 180.143 124.036 168.189 112.422C156.422 100.807 140.266 95 119.72 95C102.723 95 88.6206 99.3086 77.4137 107.926C66.3936 116.543 59.4827 127.221 56.681 139.96L88.6206 146.703H91.7025C92.6364 141.833 95.5315 137.431 100.388 133.497C105.244 129.375 111.688 127.315 119.72 127.315C128.312 127.315 135.409 129.937 141.013 135.183C145.75 139.617 148.485 145.056 149.217 151.499L110.474 154.852C92.3562 156.351 78.5344 161.222 69.0086 169.464C59.6695 177.519 55 188.478 55 202.341C55 210.958 57.148 218.639 61.4439 225.383C65.7399 232.127 71.6235 237.372 79.0948 241.118ZM149.251 181.795L115.237 184.638C107.205 185.387 101.508 187.073 98.1464 189.696C94.9711 192.319 93.3835 195.691 93.3835 199.812C93.3835 203.933 95.3447 207.305 99.2671 209.928C103.19 212.363 108.139 213.581 114.116 213.581C120.654 213.581 126.537 211.895 131.767 208.523C137.184 205.151 141.48 200.842 144.655 195.597C147.235 191.182 148.767 186.581 149.251 181.795Z" fill="#DD8AB7"/>
<path fill-rule="evenodd" clip-rule="evenodd" d="M79.0948 241.118C86.7528 244.865 95.4381 246.738 105.151 246.738C115.61 246.738 125.043 244.678 133.448 240.556C141.187 236.589 147.818 231.51 153.34 225.319V242.242H186.12V161.596C186.12 140.428 180.143 124.036 168.189 112.422C156.422 100.807 140.266 95 119.72 95C102.723 95 88.6206 99.3086 77.4137 107.926C66.3936 116.543 59.4827 127.221 56.681 139.96L88.6206 146.703H91.7025C92.6364 141.833 95.5315 137.431 100.388 133.497C105.244 129.375 111.688 127.315 119.72 127.315C128.312 127.315 135.409 129.937 141.013 135.183C145.75 139.617 148.485 145.056 149.217 151.499L110.474 154.852C92.3562 156.351 78.5344 161.222 69.0086 169.464C59.6695 177.519 55 188.478 55 202.341C55 210.958 57.148 218.639 61.4439 225.383C65.7399 232.127 71.6235 237.372 79.0948 241.118ZM149.251 181.795L115.237 184.638C107.205 185.387 101.508 187.073 98.1464 189.696C94.9711 192.319 93.3835 195.691 93.3835 199.812C93.3835 203.933 95.3447 207.305 99.2671 209.928C103.19 212.363 108.139 213.581 114.116 213.581C120.654 213.581 126.537 211.895 131.767 208.523C137.184 205.151 141.48 200.842 144.655 195.597C147.235 191.182 148.767 186.581 149.251 181.795Z" fill="#161417"/>
<path d="M279.203 306.591C263.326 306.591 249.691 302.938 238.298 295.632C227.091 288.139 219.62 278.023 215.884 265.284L250.345 256.573L253.707 257.416C255.201 262.662 258.377 266.783 263.233 269.78C268.276 272.777 274.066 274.276 280.604 274.276C286.954 274.276 292.277 273.058 296.573 270.623C300.869 268.001 303.017 264.629 303.017 260.507C303.017 256.948 301.71 254.138 299.095 252.077C296.48 250.017 292.558 248.424 287.328 247.3L260.431 241.399C247.17 238.402 236.897 233.344 229.612 226.226C222.515 218.92 218.966 210.021 218.966 199.531C218.966 190.539 221.487 182.765 226.53 176.208C231.574 169.464 238.484 164.219 247.263 160.472C256.229 156.726 266.315 154.852 277.522 154.852C292.651 154.852 305.446 158.599 315.905 166.092C326.552 173.398 333.556 183.608 336.918 196.721L304.979 203.746L301.897 203.184C300.589 198.501 297.414 194.66 292.371 191.663C287.514 188.666 282.004 187.167 275.841 187.167C270.237 187.167 265.474 188.197 261.552 190.258C257.816 192.319 255.948 195.222 255.948 198.969C255.948 201.404 256.976 203.746 259.03 205.994C261.272 208.054 264.634 209.553 269.117 210.49L296.013 216.672C310.395 220.044 321.322 225.008 328.793 231.565C336.264 237.934 340 246.832 340 258.259C340 268 337.385 276.524 332.155 283.83C326.925 291.136 319.734 296.756 310.582 300.69C301.43 304.624 290.97 306.591 279.203 306.591Z" fill="#DD8AB7"/>
</svg>
